<svg xmlns="http://www.w3.org/2000/svg" id="a" width="283.993" height="127.206" viewBox="0 0 212.995 95.404"><defs><style>.b{fill:#fff}</style></defs><path d="M5.008 22.919v.487c0 1.25 1.966 3.752 5.572 3.752 3.872 0 5.572-2.192 5.572-3.752 0-1.902-7.611-2.49-9.072-2.809C3.48 19.81 0 18.04 0 13.651 0 8.076 5.43 4.892 10.58 4.892c4.87 0 10.58 3.712 10.58 8.76v.486h-5.008v-.487c0-1.192-2.235-3.752-5.572-3.752-3.74 0-5.572 2.126-5.572 3.752 0 2.272 7.387 2.723 9.043 3.064 3.511.724 7.109 2.351 7.109 6.691 0 5.375-5.124 8.76-10.58 8.76-5.285 0-10.58-3.771-10.58-8.76v-.487h5.008ZM46.46 19.329a7.775 7.775 0 1 0-15.551 0c0 4.295 3.481 7.775 7.776 7.775s7.775-3.48 7.775-7.775Zm5.008 0c0 7.06-5.723 12.783-12.783 12.783S25.9 26.39 25.9 19.33 31.624 6.545 38.685 6.545 51.468 12.27 51.468 19.33ZM105.166 32.12v-12.8a7.775 7.775 0 1 0-15.55 0v12.8h-5.008v-12.8c0-7.06 5.723-12.782 12.783-12.782 7.06-.001 12.783 5.723 12.783 12.783v12.8h-5.008ZM135.644 9.23V0h5.008v19.378c0 7.06-5.723 12.783-12.783 12.783s-12.783-5.724-12.783-12.784c-.001-7.06 5.722-12.783 12.783-12.783 2.925 0 5.62.983 7.775 2.636Zm0 10.148a7.775 7.775 0 1 0-15.55 0 7.775 7.775 0 1 0 15.55 0ZM79.08 6.561V20.98c0 6.166-5 11.166-11.167 11.166s-11.165-5-11.165-11.167V6.561h5.007v14.417a6.159 6.159 0 0 0 12.317 0V6.562h5.008ZM146.548 6.575h5.008v25.508h-5.008zM177.893 32.12v-12.8a7.775 7.775 0 1 0-15.55 0v12.8h-5.008v-12.8c0-7.06 5.723-12.782 12.783-12.782 7.06-.001 12.783 5.723 12.783 12.783v12.8h-5.008ZM207.802 20.478l-.016-1.16.107-.002a7.775 7.775 0 1 0-15.55-.032 7.775 7.775 0 0 0 15.459 1.194Zm5.012.302.086 6.522c0 7.06-5.723 12.8-12.783 12.8h-7.787v-5.008h7.787a7.78 7.78 0 0 0 7.402-5.386 12.727 12.727 0 0 1-7.402 2.36c-7.06 0-12.783-5.724-12.783-12.784 0-7.06 5.723-12.783 12.783-12.783S212.9 12.224 212.9 19.284c0 .506-.03 1.005-.086 1.496ZM.147 94.919v-35.88c0-4.546 2.485-6.546 6.425-6.546h21.515v8.485H13.541c-2.12 0-2.848.728-2.848 2.849v5.637h11.94v8.485h-11.94v16.97H.147ZM53.847 78.373v-25.88h10.546v26.243c0 12.728-4.182 16.668-16.304 16.668s-16.243-3.94-16.243-16.668V52.493h10.546v25.88c0 5.758.849 8.546 5.697 8.546s5.758-2.788 5.758-8.546ZM79.67 94.919v-33.94H67.546v-8.486h34.79v8.485H90.213v33.94H79.67ZM127.49 78.373v-25.88h10.546v26.243c0 12.728-4.182 16.668-16.304 16.668s-16.243-3.94-16.243-16.668V52.493h10.546v25.88c0 5.758.848 8.546 5.697 8.546s5.758-2.788 5.758-8.546ZM169.54 94.942V63.85c0-2.12-.727-2.848-2.848-2.848h-5.516c-4.06 0-5.09 1.455-5.09 5.818 0 4.243.606 6.304 4.666 6.304h1.515c3.151 0 3.94 1.454 3.94 4.06v.667c0 2.303-1.394 4.606-2.728 6.666l-6.727 10.425H144.57l10-13.576v-.303h-.485c-6.909 0-8.667-6.909-8.667-14.606 0-8.789 1.94-13.94 10.728-13.94h17.516c3.939 0 6.424 2 6.424 6.545v35.88H169.54ZM212.995 94.915h-21.758c-3.94 0-6.425-1.94-6.425-6.485V59.036c0-4.545 2.485-6.546 6.425-6.546h21.515v8.486h-14.546c-2.12 0-2.848.727-2.848 2.848v5.637h16.848v7.879h-16.848v6.243c0 2.121.727 2.848 2.848 2.848h14.789v8.485Z" class="b"/></svg>